G75*
%MOIN*%
%OFA0B0*%
%FSLAX24Y24*%
%IPPOS*%
%LPD*%
%AMOC8*
5,1,8,0,0,1.08239X$1,22.5*
%
%ADD10C,0.0860*%
%ADD11OC8,0.0520*%
%ADD12C,0.0520*%
%ADD13C,0.0740*%
%ADD14R,0.0740X0.0740*%
%ADD15C,0.0550*%
%ADD16C,0.0160*%
%ADD17C,0.0396*%
D10*
X002699Y003100D03*
X004668Y002116D03*
X004668Y001131D03*
X004668Y004084D03*
X004668Y005069D03*
X004668Y006631D03*
X004668Y007616D03*
X004668Y009584D03*
X004668Y010569D03*
X002699Y008600D03*
D11*
X008199Y010100D03*
X009199Y010100D03*
X012199Y010600D03*
X012199Y006600D03*
X012199Y005100D03*
X009199Y004600D03*
X008199Y004600D03*
X012199Y001100D03*
D12*
X009699Y001840D02*
X009699Y002360D01*
X008699Y002360D02*
X008699Y001840D01*
X007699Y001840D02*
X007699Y002360D01*
X007699Y007340D02*
X007699Y007860D01*
X008699Y007860D02*
X008699Y007340D01*
X009699Y007340D02*
X009699Y007860D01*
X011939Y014100D02*
X012459Y014100D01*
X012459Y015100D02*
X011939Y015100D01*
X011939Y016100D02*
X012459Y016100D01*
X012459Y020100D02*
X011939Y020100D01*
X011939Y021100D02*
X012459Y021100D01*
X012459Y022100D02*
X011939Y022100D01*
D13*
X014949Y021600D03*
X014949Y020600D03*
X014949Y019600D03*
X014949Y018600D03*
X014949Y017600D03*
X014949Y016600D03*
X014949Y015600D03*
X014949Y014600D03*
X009199Y014600D03*
X009199Y013600D03*
X009199Y012600D03*
X014949Y022600D03*
X014949Y023600D03*
D14*
X009199Y015600D03*
D15*
X014199Y008350D03*
X014199Y007350D03*
X014199Y006350D03*
X014199Y005350D03*
X015199Y004850D03*
X015199Y005850D03*
X015199Y006850D03*
X015199Y007850D03*
D16*
X012949Y007850D01*
X011949Y008850D01*
X006199Y008850D01*
X005949Y008600D01*
X005949Y003350D01*
X007199Y002100D01*
X007699Y002100D01*
X008699Y002100D02*
X008699Y003350D01*
X008199Y003850D01*
X008199Y004600D01*
X009449Y005600D02*
X009949Y005100D01*
X009949Y003850D01*
X009699Y003600D01*
X009699Y002100D01*
X009449Y005600D02*
X006699Y005600D01*
X006449Y005850D01*
X006449Y008350D01*
X006699Y008600D01*
X011699Y008600D01*
X012949Y007350D01*
X014199Y007350D01*
X014199Y006350D02*
X013449Y006350D01*
X013199Y006100D01*
X010449Y006100D01*
X009699Y006850D01*
X009699Y007600D01*
X009699Y006100D02*
X010199Y005600D01*
X012949Y005600D01*
X013699Y004850D01*
X015199Y004850D01*
X015199Y005850D02*
X015699Y006350D01*
X015699Y008600D01*
X012449Y011850D01*
X011699Y011850D01*
X011199Y012350D01*
X011199Y014850D01*
X011449Y015100D01*
X012199Y015100D01*
X012199Y016100D02*
X013199Y016100D01*
X013699Y016600D01*
X013699Y020350D01*
X013949Y020600D01*
X014949Y020600D01*
X014949Y022600D02*
X013699Y022600D01*
X013199Y022100D01*
X012199Y022100D01*
X010949Y022100D01*
X010449Y021600D01*
X010449Y013350D01*
X009699Y012600D01*
X009199Y012600D01*
X008449Y012100D02*
X008699Y011850D01*
X009949Y011850D01*
X010949Y012850D01*
X010949Y015850D01*
X011199Y016100D01*
X012199Y016100D01*
X011449Y017100D02*
X011199Y017350D01*
X011199Y020850D01*
X011449Y021100D01*
X012199Y021100D01*
X012199Y020100D02*
X012199Y017600D01*
X014199Y014600D02*
X014949Y014600D01*
X014199Y014600D02*
X013699Y014100D01*
X012199Y014100D01*
X011699Y011100D02*
X012199Y010600D01*
X011699Y011100D02*
X005199Y011100D01*
X004668Y010569D01*
X003949Y011600D02*
X007949Y015600D01*
X009199Y015600D01*
X008449Y016350D02*
X008199Y016350D01*
X003449Y011600D01*
X003449Y008600D01*
X002699Y008600D01*
X003449Y008600D02*
X003449Y003850D01*
X002699Y003100D01*
X003949Y001850D02*
X003949Y006600D01*
X004636Y006600D01*
X004668Y006631D01*
X003949Y006600D02*
X003949Y009000D01*
X005099Y009000D01*
X005199Y009100D01*
X012199Y009100D01*
X012949Y008350D01*
X014199Y008350D01*
X015199Y006850D02*
X012949Y006850D01*
X011449Y008350D01*
X007199Y008350D01*
X006949Y008100D01*
X007699Y007600D02*
X007699Y006350D01*
X007949Y006100D01*
X009699Y006100D01*
X008449Y012100D02*
X008449Y013350D01*
X008699Y013600D01*
X009199Y013600D01*
X003949Y011600D02*
X003949Y009000D01*
X003949Y001850D02*
X004668Y001131D01*
D17*
X006949Y008100D03*
X008449Y016350D03*
X011449Y017100D03*
X012199Y017600D03*
M02*
