G75*
%MOIN*%
%OFA0B0*%
%FSLAX24Y24*%
%IPPOS*%
%LPD*%
%AMOC8*
5,1,8,0,0,1.08239X$1,22.5*
%
%ADD10C,0.0000*%
D10*
X001199Y000100D02*
X001199Y024220D01*
X019941Y024220D01*
X019941Y000100D01*
X001199Y000100D01*
X001479Y001131D02*
X001481Y001161D01*
X001487Y001191D01*
X001496Y001220D01*
X001509Y001247D01*
X001526Y001272D01*
X001545Y001295D01*
X001568Y001316D01*
X001593Y001333D01*
X001619Y001347D01*
X001648Y001357D01*
X001677Y001364D01*
X001707Y001367D01*
X001738Y001366D01*
X001768Y001361D01*
X001797Y001352D01*
X001824Y001340D01*
X001850Y001325D01*
X001874Y001306D01*
X001895Y001284D01*
X001913Y001260D01*
X001928Y001233D01*
X001939Y001205D01*
X001947Y001176D01*
X001951Y001146D01*
X001951Y001116D01*
X001947Y001086D01*
X001939Y001057D01*
X001928Y001029D01*
X001913Y001002D01*
X001895Y000978D01*
X001874Y000956D01*
X001850Y000937D01*
X001824Y000922D01*
X001797Y000910D01*
X001768Y000901D01*
X001738Y000896D01*
X001707Y000895D01*
X001677Y000898D01*
X001648Y000905D01*
X001619Y000915D01*
X001593Y000929D01*
X001568Y000946D01*
X001545Y000967D01*
X001526Y000990D01*
X001509Y001015D01*
X001496Y001042D01*
X001487Y001071D01*
X001481Y001101D01*
X001479Y001131D01*
X002463Y001131D02*
X002465Y001161D01*
X002471Y001191D01*
X002480Y001220D01*
X002493Y001247D01*
X002510Y001272D01*
X002529Y001295D01*
X002552Y001316D01*
X002577Y001333D01*
X002603Y001347D01*
X002632Y001357D01*
X002661Y001364D01*
X002691Y001367D01*
X002722Y001366D01*
X002752Y001361D01*
X002781Y001352D01*
X002808Y001340D01*
X002834Y001325D01*
X002858Y001306D01*
X002879Y001284D01*
X002897Y001260D01*
X002912Y001233D01*
X002923Y001205D01*
X002931Y001176D01*
X002935Y001146D01*
X002935Y001116D01*
X002931Y001086D01*
X002923Y001057D01*
X002912Y001029D01*
X002897Y001002D01*
X002879Y000978D01*
X002858Y000956D01*
X002834Y000937D01*
X002808Y000922D01*
X002781Y000910D01*
X002752Y000901D01*
X002722Y000896D01*
X002691Y000895D01*
X002661Y000898D01*
X002632Y000905D01*
X002603Y000915D01*
X002577Y000929D01*
X002552Y000946D01*
X002529Y000967D01*
X002510Y000990D01*
X002493Y001015D01*
X002480Y001042D01*
X002471Y001071D01*
X002465Y001101D01*
X002463Y001131D01*
X004432Y003100D02*
X004434Y003130D01*
X004440Y003160D01*
X004449Y003189D01*
X004462Y003216D01*
X004479Y003241D01*
X004498Y003264D01*
X004521Y003285D01*
X004546Y003302D01*
X004572Y003316D01*
X004601Y003326D01*
X004630Y003333D01*
X004660Y003336D01*
X004691Y003335D01*
X004721Y003330D01*
X004750Y003321D01*
X004777Y003309D01*
X004803Y003294D01*
X004827Y003275D01*
X004848Y003253D01*
X004866Y003229D01*
X004881Y003202D01*
X004892Y003174D01*
X004900Y003145D01*
X004904Y003115D01*
X004904Y003085D01*
X004900Y003055D01*
X004892Y003026D01*
X004881Y002998D01*
X004866Y002971D01*
X004848Y002947D01*
X004827Y002925D01*
X004803Y002906D01*
X004777Y002891D01*
X004750Y002879D01*
X004721Y002870D01*
X004691Y002865D01*
X004660Y002864D01*
X004630Y002867D01*
X004601Y002874D01*
X004572Y002884D01*
X004546Y002898D01*
X004521Y002915D01*
X004498Y002936D01*
X004479Y002959D01*
X004462Y002984D01*
X004449Y003011D01*
X004440Y003040D01*
X004434Y003070D01*
X004432Y003100D01*
X002463Y005069D02*
X002465Y005099D01*
X002471Y005129D01*
X002480Y005158D01*
X002493Y005185D01*
X002510Y005210D01*
X002529Y005233D01*
X002552Y005254D01*
X002577Y005271D01*
X002603Y005285D01*
X002632Y005295D01*
X002661Y005302D01*
X002691Y005305D01*
X002722Y005304D01*
X002752Y005299D01*
X002781Y005290D01*
X002808Y005278D01*
X002834Y005263D01*
X002858Y005244D01*
X002879Y005222D01*
X002897Y005198D01*
X002912Y005171D01*
X002923Y005143D01*
X002931Y005114D01*
X002935Y005084D01*
X002935Y005054D01*
X002931Y005024D01*
X002923Y004995D01*
X002912Y004967D01*
X002897Y004940D01*
X002879Y004916D01*
X002858Y004894D01*
X002834Y004875D01*
X002808Y004860D01*
X002781Y004848D01*
X002752Y004839D01*
X002722Y004834D01*
X002691Y004833D01*
X002661Y004836D01*
X002632Y004843D01*
X002603Y004853D01*
X002577Y004867D01*
X002552Y004884D01*
X002529Y004905D01*
X002510Y004928D01*
X002493Y004953D01*
X002480Y004980D01*
X002471Y005009D01*
X002465Y005039D01*
X002463Y005069D01*
X001479Y005069D02*
X001481Y005099D01*
X001487Y005129D01*
X001496Y005158D01*
X001509Y005185D01*
X001526Y005210D01*
X001545Y005233D01*
X001568Y005254D01*
X001593Y005271D01*
X001619Y005285D01*
X001648Y005295D01*
X001677Y005302D01*
X001707Y005305D01*
X001738Y005304D01*
X001768Y005299D01*
X001797Y005290D01*
X001824Y005278D01*
X001850Y005263D01*
X001874Y005244D01*
X001895Y005222D01*
X001913Y005198D01*
X001928Y005171D01*
X001939Y005143D01*
X001947Y005114D01*
X001951Y005084D01*
X001951Y005054D01*
X001947Y005024D01*
X001939Y004995D01*
X001928Y004967D01*
X001913Y004940D01*
X001895Y004916D01*
X001874Y004894D01*
X001850Y004875D01*
X001824Y004860D01*
X001797Y004848D01*
X001768Y004839D01*
X001738Y004834D01*
X001707Y004833D01*
X001677Y004836D01*
X001648Y004843D01*
X001619Y004853D01*
X001593Y004867D01*
X001568Y004884D01*
X001545Y004905D01*
X001526Y004928D01*
X001509Y004953D01*
X001496Y004980D01*
X001487Y005009D01*
X001481Y005039D01*
X001479Y005069D01*
X001479Y006631D02*
X001481Y006661D01*
X001487Y006691D01*
X001496Y006720D01*
X001509Y006747D01*
X001526Y006772D01*
X001545Y006795D01*
X001568Y006816D01*
X001593Y006833D01*
X001619Y006847D01*
X001648Y006857D01*
X001677Y006864D01*
X001707Y006867D01*
X001738Y006866D01*
X001768Y006861D01*
X001797Y006852D01*
X001824Y006840D01*
X001850Y006825D01*
X001874Y006806D01*
X001895Y006784D01*
X001913Y006760D01*
X001928Y006733D01*
X001939Y006705D01*
X001947Y006676D01*
X001951Y006646D01*
X001951Y006616D01*
X001947Y006586D01*
X001939Y006557D01*
X001928Y006529D01*
X001913Y006502D01*
X001895Y006478D01*
X001874Y006456D01*
X001850Y006437D01*
X001824Y006422D01*
X001797Y006410D01*
X001768Y006401D01*
X001738Y006396D01*
X001707Y006395D01*
X001677Y006398D01*
X001648Y006405D01*
X001619Y006415D01*
X001593Y006429D01*
X001568Y006446D01*
X001545Y006467D01*
X001526Y006490D01*
X001509Y006515D01*
X001496Y006542D01*
X001487Y006571D01*
X001481Y006601D01*
X001479Y006631D01*
X002463Y006631D02*
X002465Y006661D01*
X002471Y006691D01*
X002480Y006720D01*
X002493Y006747D01*
X002510Y006772D01*
X002529Y006795D01*
X002552Y006816D01*
X002577Y006833D01*
X002603Y006847D01*
X002632Y006857D01*
X002661Y006864D01*
X002691Y006867D01*
X002722Y006866D01*
X002752Y006861D01*
X002781Y006852D01*
X002808Y006840D01*
X002834Y006825D01*
X002858Y006806D01*
X002879Y006784D01*
X002897Y006760D01*
X002912Y006733D01*
X002923Y006705D01*
X002931Y006676D01*
X002935Y006646D01*
X002935Y006616D01*
X002931Y006586D01*
X002923Y006557D01*
X002912Y006529D01*
X002897Y006502D01*
X002879Y006478D01*
X002858Y006456D01*
X002834Y006437D01*
X002808Y006422D01*
X002781Y006410D01*
X002752Y006401D01*
X002722Y006396D01*
X002691Y006395D01*
X002661Y006398D01*
X002632Y006405D01*
X002603Y006415D01*
X002577Y006429D01*
X002552Y006446D01*
X002529Y006467D01*
X002510Y006490D01*
X002493Y006515D01*
X002480Y006542D01*
X002471Y006571D01*
X002465Y006601D01*
X002463Y006631D01*
X004432Y008600D02*
X004434Y008630D01*
X004440Y008660D01*
X004449Y008689D01*
X004462Y008716D01*
X004479Y008741D01*
X004498Y008764D01*
X004521Y008785D01*
X004546Y008802D01*
X004572Y008816D01*
X004601Y008826D01*
X004630Y008833D01*
X004660Y008836D01*
X004691Y008835D01*
X004721Y008830D01*
X004750Y008821D01*
X004777Y008809D01*
X004803Y008794D01*
X004827Y008775D01*
X004848Y008753D01*
X004866Y008729D01*
X004881Y008702D01*
X004892Y008674D01*
X004900Y008645D01*
X004904Y008615D01*
X004904Y008585D01*
X004900Y008555D01*
X004892Y008526D01*
X004881Y008498D01*
X004866Y008471D01*
X004848Y008447D01*
X004827Y008425D01*
X004803Y008406D01*
X004777Y008391D01*
X004750Y008379D01*
X004721Y008370D01*
X004691Y008365D01*
X004660Y008364D01*
X004630Y008367D01*
X004601Y008374D01*
X004572Y008384D01*
X004546Y008398D01*
X004521Y008415D01*
X004498Y008436D01*
X004479Y008459D01*
X004462Y008484D01*
X004449Y008511D01*
X004440Y008540D01*
X004434Y008570D01*
X004432Y008600D01*
X002463Y010569D02*
X002465Y010599D01*
X002471Y010629D01*
X002480Y010658D01*
X002493Y010685D01*
X002510Y010710D01*
X002529Y010733D01*
X002552Y010754D01*
X002577Y010771D01*
X002603Y010785D01*
X002632Y010795D01*
X002661Y010802D01*
X002691Y010805D01*
X002722Y010804D01*
X002752Y010799D01*
X002781Y010790D01*
X002808Y010778D01*
X002834Y010763D01*
X002858Y010744D01*
X002879Y010722D01*
X002897Y010698D01*
X002912Y010671D01*
X002923Y010643D01*
X002931Y010614D01*
X002935Y010584D01*
X002935Y010554D01*
X002931Y010524D01*
X002923Y010495D01*
X002912Y010467D01*
X002897Y010440D01*
X002879Y010416D01*
X002858Y010394D01*
X002834Y010375D01*
X002808Y010360D01*
X002781Y010348D01*
X002752Y010339D01*
X002722Y010334D01*
X002691Y010333D01*
X002661Y010336D01*
X002632Y010343D01*
X002603Y010353D01*
X002577Y010367D01*
X002552Y010384D01*
X002529Y010405D01*
X002510Y010428D01*
X002493Y010453D01*
X002480Y010480D01*
X002471Y010509D01*
X002465Y010539D01*
X002463Y010569D01*
X001479Y010569D02*
X001481Y010599D01*
X001487Y010629D01*
X001496Y010658D01*
X001509Y010685D01*
X001526Y010710D01*
X001545Y010733D01*
X001568Y010754D01*
X001593Y010771D01*
X001619Y010785D01*
X001648Y010795D01*
X001677Y010802D01*
X001707Y010805D01*
X001738Y010804D01*
X001768Y010799D01*
X001797Y010790D01*
X001824Y010778D01*
X001850Y010763D01*
X001874Y010744D01*
X001895Y010722D01*
X001913Y010698D01*
X001928Y010671D01*
X001939Y010643D01*
X001947Y010614D01*
X001951Y010584D01*
X001951Y010554D01*
X001947Y010524D01*
X001939Y010495D01*
X001928Y010467D01*
X001913Y010440D01*
X001895Y010416D01*
X001874Y010394D01*
X001850Y010375D01*
X001824Y010360D01*
X001797Y010348D01*
X001768Y010339D01*
X001738Y010334D01*
X001707Y010333D01*
X001677Y010336D01*
X001648Y010343D01*
X001619Y010353D01*
X001593Y010367D01*
X001568Y010384D01*
X001545Y010405D01*
X001526Y010428D01*
X001509Y010453D01*
X001496Y010480D01*
X001487Y010509D01*
X001481Y010539D01*
X001479Y010569D01*
X016549Y011600D02*
X016551Y011650D01*
X016557Y011700D01*
X016567Y011750D01*
X016580Y011798D01*
X016597Y011846D01*
X016618Y011892D01*
X016642Y011936D01*
X016670Y011978D01*
X016701Y012018D01*
X016735Y012055D01*
X016772Y012090D01*
X016811Y012121D01*
X016852Y012150D01*
X016896Y012175D01*
X016942Y012197D01*
X016989Y012215D01*
X017037Y012229D01*
X017086Y012240D01*
X017136Y012247D01*
X017186Y012250D01*
X017237Y012249D01*
X017287Y012244D01*
X017337Y012235D01*
X017385Y012223D01*
X017433Y012206D01*
X017479Y012186D01*
X017524Y012163D01*
X017567Y012136D01*
X017607Y012106D01*
X017645Y012073D01*
X017680Y012037D01*
X017713Y011998D01*
X017742Y011957D01*
X017768Y011914D01*
X017791Y011869D01*
X017810Y011822D01*
X017825Y011774D01*
X017837Y011725D01*
X017845Y011675D01*
X017849Y011625D01*
X017849Y011575D01*
X017845Y011525D01*
X017837Y011475D01*
X017825Y011426D01*
X017810Y011378D01*
X017791Y011331D01*
X017768Y011286D01*
X017742Y011243D01*
X017713Y011202D01*
X017680Y011163D01*
X017645Y011127D01*
X017607Y011094D01*
X017567Y011064D01*
X017524Y011037D01*
X017479Y011014D01*
X017433Y010994D01*
X017385Y010977D01*
X017337Y010965D01*
X017287Y010956D01*
X017237Y010951D01*
X017186Y010950D01*
X017136Y010953D01*
X017086Y010960D01*
X017037Y010971D01*
X016989Y010985D01*
X016942Y011003D01*
X016896Y011025D01*
X016852Y011050D01*
X016811Y011079D01*
X016772Y011110D01*
X016735Y011145D01*
X016701Y011182D01*
X016670Y011222D01*
X016642Y011264D01*
X016618Y011308D01*
X016597Y011354D01*
X016580Y011402D01*
X016567Y011450D01*
X016557Y011500D01*
X016551Y011550D01*
X016549Y011600D01*
X017069Y008850D02*
X017071Y008900D01*
X017077Y008950D01*
X017087Y008999D01*
X017101Y009047D01*
X017118Y009094D01*
X017139Y009139D01*
X017164Y009183D01*
X017192Y009224D01*
X017224Y009263D01*
X017258Y009300D01*
X017295Y009334D01*
X017335Y009364D01*
X017377Y009391D01*
X017421Y009415D01*
X017467Y009436D01*
X017514Y009452D01*
X017562Y009465D01*
X017612Y009474D01*
X017661Y009479D01*
X017712Y009480D01*
X017762Y009477D01*
X017811Y009470D01*
X017860Y009459D01*
X017908Y009444D01*
X017954Y009426D01*
X017999Y009404D01*
X018042Y009378D01*
X018083Y009349D01*
X018122Y009317D01*
X018158Y009282D01*
X018190Y009244D01*
X018220Y009204D01*
X018247Y009161D01*
X018270Y009117D01*
X018289Y009071D01*
X018305Y009023D01*
X018317Y008974D01*
X018325Y008925D01*
X018329Y008875D01*
X018329Y008825D01*
X018325Y008775D01*
X018317Y008726D01*
X018305Y008677D01*
X018289Y008629D01*
X018270Y008583D01*
X018247Y008539D01*
X018220Y008496D01*
X018190Y008456D01*
X018158Y008418D01*
X018122Y008383D01*
X018083Y008351D01*
X018042Y008322D01*
X017999Y008296D01*
X017954Y008274D01*
X017908Y008256D01*
X017860Y008241D01*
X017811Y008230D01*
X017762Y008223D01*
X017712Y008220D01*
X017661Y008221D01*
X017612Y008226D01*
X017562Y008235D01*
X017514Y008248D01*
X017467Y008264D01*
X017421Y008285D01*
X017377Y008309D01*
X017335Y008336D01*
X017295Y008366D01*
X017258Y008400D01*
X017224Y008437D01*
X017192Y008476D01*
X017164Y008517D01*
X017139Y008561D01*
X017118Y008606D01*
X017101Y008653D01*
X017087Y008701D01*
X017077Y008750D01*
X017071Y008800D01*
X017069Y008850D01*
X017069Y004350D02*
X017071Y004400D01*
X017077Y004450D01*
X017087Y004499D01*
X017101Y004547D01*
X017118Y004594D01*
X017139Y004639D01*
X017164Y004683D01*
X017192Y004724D01*
X017224Y004763D01*
X017258Y004800D01*
X017295Y004834D01*
X017335Y004864D01*
X017377Y004891D01*
X017421Y004915D01*
X017467Y004936D01*
X017514Y004952D01*
X017562Y004965D01*
X017612Y004974D01*
X017661Y004979D01*
X017712Y004980D01*
X017762Y004977D01*
X017811Y004970D01*
X017860Y004959D01*
X017908Y004944D01*
X017954Y004926D01*
X017999Y004904D01*
X018042Y004878D01*
X018083Y004849D01*
X018122Y004817D01*
X018158Y004782D01*
X018190Y004744D01*
X018220Y004704D01*
X018247Y004661D01*
X018270Y004617D01*
X018289Y004571D01*
X018305Y004523D01*
X018317Y004474D01*
X018325Y004425D01*
X018329Y004375D01*
X018329Y004325D01*
X018325Y004275D01*
X018317Y004226D01*
X018305Y004177D01*
X018289Y004129D01*
X018270Y004083D01*
X018247Y004039D01*
X018220Y003996D01*
X018190Y003956D01*
X018158Y003918D01*
X018122Y003883D01*
X018083Y003851D01*
X018042Y003822D01*
X017999Y003796D01*
X017954Y003774D01*
X017908Y003756D01*
X017860Y003741D01*
X017811Y003730D01*
X017762Y003723D01*
X017712Y003720D01*
X017661Y003721D01*
X017612Y003726D01*
X017562Y003735D01*
X017514Y003748D01*
X017467Y003764D01*
X017421Y003785D01*
X017377Y003809D01*
X017335Y003836D01*
X017295Y003866D01*
X017258Y003900D01*
X017224Y003937D01*
X017192Y003976D01*
X017164Y004017D01*
X017139Y004061D01*
X017118Y004106D01*
X017101Y004153D01*
X017087Y004201D01*
X017077Y004250D01*
X017071Y004300D01*
X017069Y004350D01*
X016549Y001600D02*
X016551Y001650D01*
X016557Y001700D01*
X016567Y001750D01*
X016580Y001798D01*
X016597Y001846D01*
X016618Y001892D01*
X016642Y001936D01*
X016670Y001978D01*
X016701Y002018D01*
X016735Y002055D01*
X016772Y002090D01*
X016811Y002121D01*
X016852Y002150D01*
X016896Y002175D01*
X016942Y002197D01*
X016989Y002215D01*
X017037Y002229D01*
X017086Y002240D01*
X017136Y002247D01*
X017186Y002250D01*
X017237Y002249D01*
X017287Y002244D01*
X017337Y002235D01*
X017385Y002223D01*
X017433Y002206D01*
X017479Y002186D01*
X017524Y002163D01*
X017567Y002136D01*
X017607Y002106D01*
X017645Y002073D01*
X017680Y002037D01*
X017713Y001998D01*
X017742Y001957D01*
X017768Y001914D01*
X017791Y001869D01*
X017810Y001822D01*
X017825Y001774D01*
X017837Y001725D01*
X017845Y001675D01*
X017849Y001625D01*
X017849Y001575D01*
X017845Y001525D01*
X017837Y001475D01*
X017825Y001426D01*
X017810Y001378D01*
X017791Y001331D01*
X017768Y001286D01*
X017742Y001243D01*
X017713Y001202D01*
X017680Y001163D01*
X017645Y001127D01*
X017607Y001094D01*
X017567Y001064D01*
X017524Y001037D01*
X017479Y001014D01*
X017433Y000994D01*
X017385Y000977D01*
X017337Y000965D01*
X017287Y000956D01*
X017237Y000951D01*
X017186Y000950D01*
X017136Y000953D01*
X017086Y000960D01*
X017037Y000971D01*
X016989Y000985D01*
X016942Y001003D01*
X016896Y001025D01*
X016852Y001050D01*
X016811Y001079D01*
X016772Y001110D01*
X016735Y001145D01*
X016701Y001182D01*
X016670Y001222D01*
X016642Y001264D01*
X016618Y001308D01*
X016597Y001354D01*
X016580Y001402D01*
X016567Y001450D01*
X016557Y001500D01*
X016551Y001550D01*
X016549Y001600D01*
M02*
