G75*
%MOIN*%
%OFA0B0*%
%FSLAX24Y24*%
%IPPOS*%
%LPD*%
%AMOC8*
5,1,8,0,0,1.08239X$1,22.5*
%
%ADD10C,0.0860*%
%ADD11OC8,0.0520*%
%ADD12C,0.0520*%
%ADD13C,0.0740*%
%ADD14R,0.0740X0.0740*%
%ADD15C,0.0550*%
%ADD16C,0.0396*%
%ADD17C,0.0160*%
D10*
X002699Y003100D03*
X004668Y002116D03*
X004668Y001131D03*
X004668Y004084D03*
X004668Y005069D03*
X004668Y006631D03*
X004668Y007616D03*
X004668Y009584D03*
X004668Y010569D03*
X002699Y008600D03*
D11*
X008199Y010100D03*
X009199Y010100D03*
X012199Y010600D03*
X012199Y006600D03*
X012199Y005100D03*
X009199Y004600D03*
X008199Y004600D03*
X012199Y001100D03*
D12*
X009699Y001840D02*
X009699Y002360D01*
X008699Y002360D02*
X008699Y001840D01*
X007699Y001840D02*
X007699Y002360D01*
X007699Y007340D02*
X007699Y007860D01*
X008699Y007860D02*
X008699Y007340D01*
X009699Y007340D02*
X009699Y007860D01*
X011939Y014100D02*
X012459Y014100D01*
X012459Y015100D02*
X011939Y015100D01*
X011939Y016100D02*
X012459Y016100D01*
X012459Y020100D02*
X011939Y020100D01*
X011939Y021100D02*
X012459Y021100D01*
X012459Y022100D02*
X011939Y022100D01*
D13*
X014949Y021600D03*
X014949Y020600D03*
X014949Y019600D03*
X014949Y018600D03*
X014949Y017600D03*
X014949Y016600D03*
X014949Y015600D03*
X014949Y014600D03*
X009199Y014600D03*
X009199Y013600D03*
X009199Y012600D03*
X014949Y022600D03*
X014949Y023600D03*
D14*
X009199Y015600D03*
D15*
X014199Y008350D03*
X014199Y007350D03*
X014199Y006350D03*
X014199Y005350D03*
X015199Y004850D03*
X015199Y005850D03*
X015199Y006850D03*
X015199Y007850D03*
D16*
X008449Y016350D03*
X011449Y017100D03*
X012199Y017600D03*
X006949Y008100D03*
D17*
X005299Y008100D01*
X005199Y008200D01*
X004199Y008200D01*
X003799Y008600D01*
X002699Y008600D01*
X005199Y005600D02*
X009449Y005600D01*
X009949Y005100D01*
X012199Y005100D01*
X011449Y004600D02*
X009199Y004600D01*
X011449Y004600D02*
X012199Y003850D01*
X012199Y001100D01*
X013699Y005350D02*
X014199Y005350D01*
X013699Y005350D02*
X013199Y005850D01*
X013199Y016600D01*
X012699Y017100D01*
X011449Y017100D01*
X012199Y017600D02*
X013199Y017600D01*
X014199Y016600D01*
X014949Y016600D01*
X014949Y018600D02*
X009699Y018600D01*
X009199Y018100D01*
X009199Y015600D01*
X009199Y014600D02*
X008699Y014600D01*
X008449Y014850D01*
X008449Y016350D01*
X008449Y018350D01*
X009199Y019100D01*
X012949Y019100D01*
X013449Y019600D01*
X014949Y019600D01*
X011449Y010100D02*
X009199Y010100D01*
X008199Y010100D02*
X008199Y009350D01*
X008699Y008850D01*
X008699Y007600D01*
X011449Y010100D02*
X012199Y009350D01*
X012199Y006600D01*
X005199Y005600D02*
X004668Y005069D01*
M02*
