%
M48
M72
T01C0.0236
T02C0.0320
T03C0.0350
T04C0.0400
T05C0.0472
T06C0.0512
T07C0.1260
T08C0.1300
%
T01
X6949Y8100
X8449Y16350
X11449Y17100
X12199Y17600
T02
X12199Y16100
X12199Y15100
X12199Y14100
X12199Y10600
X9699Y7600
X8699Y7600
X7699Y7600
X8199Y10100
X9199Y10100
X12199Y6600
X12199Y5100
X9699Y2100
X8699Y2100
X7699Y2100
X8199Y4600
X9199Y4600
X12199Y1100
X12199Y20100
X12199Y21100
X12199Y22100
T03
X14199Y8350
X14199Y7350
X14199Y6350
X14199Y5350
X15199Y4850
X15199Y5850
X15199Y6850
X15199Y7850
T04
X14949Y14600
X14949Y15600
X14949Y16600
X14949Y17600
X14949Y18600
X14949Y19600
X14949Y20600
X14949Y21600
X14949Y22600
X14949Y23600
X9199Y15600
X9199Y14600
X9199Y13600
X9199Y12600
T05
X1715Y1131
X2699Y1131
X4668Y3100
X2699Y5069
X1715Y5069
X1715Y6631
X2699Y6631
X4668Y8600
X2699Y10569
X1715Y10569
T06
X2699Y8600
X4668Y7616
X4668Y6631
X4668Y5069
X4668Y4084
X4668Y2116
X4668Y1131
X2699Y3100
X4668Y9584
X4668Y10569
T07
X17699Y8850
X17699Y4350
T08
X17199Y1600
X17199Y11600
M30
